<?xml version="1.0" encoding="utf-8"?>
<!-- Generator: Adobe Illustrator 18.0.0, SVG Export Plug-In . SVG Version: 6.00 Build 0)  -->
<!DOCTYPE svg PUBLIC "-//W3C//DTD SVG 1.1//EN" "http://www.w3.org/Graphics/SVG/1.1/DTD/svg11.dtd">
<svg version="1.1" id="Layer_1" xmlns="http://www.w3.org/2000/svg" xmlns:xlink="http://www.w3.org/1999/xlink" x="0px" y="0px"
	 viewBox="0 90 612 612" enable-background="new 0 90 612 612" xml:space="preserve">
<rect y="90" fill="#583E7D" width="612" height="612"/>
<g>
	<path fill="#FFFFFF" d="M192.8,262.4h134.4c13.6,0,26,1.2,37.2,3.6c11.2,2.4,20.8,6.3,28.8,11.8c8,5.5,14.2,12.7,18.6,21.8
		c4.4,9.1,6.6,20.3,6.6,33.6c0,14.4-3.3,26.4-9.8,36s-16.2,17.5-29,23.6c17.6,5.1,30.7,13.9,39.4,26.6c8.7,12.7,13,27.9,13,45.8
		c0,14.4-2.8,26.9-8.4,37.4s-13.1,19.1-22.6,25.8s-20.3,11.6-32.4,14.8c-12.1,3.2-24.6,4.8-37.4,4.8H192.8V262.4z M255.6,378h63.6
		c11.2,0,20.4-2.7,27.6-8c7.2-5.3,10.8-14,10.8-26c0-6.7-1.2-12.1-3.6-16.4s-5.6-7.6-9.6-10c-4-2.4-8.6-4.1-13.8-5
		c-5.2-0.9-10.6-1.4-16.2-1.4h-58.8V378z M255.6,499.2h67.2c6.1,0,12-0.6,17.6-1.8c5.6-1.2,10.5-3.2,14.8-6
		c4.3-2.8,7.7-6.6,10.2-11.4s3.8-10.9,3.8-18.4c0-14.7-4.1-25.1-12.4-31.4c-8.3-6.3-19.2-9.4-32.8-9.4h-68.4V499.2z"/>
</g>
<g>
	<path fill="#FFFFFF" d="M43,574.4V215.8h82.3v24.8H73.6v309.1h51.7v24.7H43z"/>
</g>
<g>
	<path fill="#FFFFFF" d="M569,215.3v359.1h-82.3v-24.7h51.8V240.1h-51.8v-24.7H569z"/>
</g>
</svg>
